<?xml version="1.0" encoding="UTF-8" standalone="no"?>
<!-- Created with Inkscape (http://www.inkscape.org/) -->

<svg
   xmlns:dc="http://purl.org/dc/elements/1.1/"
   xmlns:cc="http://creativecommons.org/ns#"
   xmlns:rdf="http://www.w3.org/1999/02/22-rdf-syntax-ns#"
   xmlns:svg="http://www.w3.org/2000/svg"
   xmlns="http://www.w3.org/2000/svg"
   xmlns:xlink="http://www.w3.org/1999/xlink"
   xmlns:sodipodi="http://sodipodi.sourceforge.net/DTD/sodipodi-0.dtd"
   xmlns:inkscape="http://www.inkscape.org/namespaces/inkscape"
   width="282.67487mm"
   height="277.1955mm"
   viewBox="0 0 1001.6039 982.18876"
   id="svg2"
   version="1.1"
   inkscape:version="0.91 r13725"
   sodipodi:docname="bmo-body.svg">
  <defs
     id="defs4" />
  <sodipodi:namedview
     id="base"
     pagecolor="#ffffff"
     bordercolor="#666666"
     borderopacity="1.0"
     inkscape:pageopacity="0.0"
     inkscape:pageshadow="2"
     inkscape:zoom="0.5"
     inkscape:cx="556.18599"
     inkscape:cy="462.12377"
     inkscape:document-units="px"
     inkscape:current-layer="layer1"
     showgrid="false"
     inkscape:snap-bbox="true"
     inkscape:bbox-paths="false"
     inkscape:bbox-nodes="true"
     inkscape:snap-page="true"
     inkscape:snap-bbox-edge-midpoints="false"
     inkscape:snap-global="false"
     showguides="false"
     inkscape:guide-bbox="true"
     inkscape:window-width="1920"
     inkscape:window-height="1056"
     inkscape:window-x="0"
     inkscape:window-y="24"
     inkscape:window-maximized="1"
     fit-margin-top="0"
     fit-margin-left="0"
     fit-margin-right="0"
     fit-margin-bottom="0">
    <sodipodi:guide
       position="253.31666,483.18876"
       orientation="1,0"
       id="guide4260" />
    <sodipodi:guide
       position="790.44167,484.05097"
       orientation="1,0"
       id="guide4262" />
  </sodipodi:namedview>
  <metadata
     id="metadata7">
    <rdf:RDF>
      <cc:Work
         rdf:about="">
        <dc:format>image/svg+xml</dc:format>
        <dc:type
           rdf:resource="http://purl.org/dc/dcmitype/StillImage" />
        <dc:title></dc:title>
      </cc:Work>
    </rdf:RDF>
  </metadata>
  <g
     inkscape:label="Layer 1"
     inkscape:groupmode="layer"
     id="layer1"
     transform="translate(174.31665,-32.362206)">
    <ellipse
       style="fill:#e0dada;fill-opacity:1;stroke:none;stroke-width:19;stroke-linecap:round;stroke-linejoin:round;stroke-miterlimit:4;stroke-dasharray:none;stroke-opacity:1"
       id="path4439"
       cx="326.48529"
       cy="938.90631"
       rx="500.80194"
       ry="75.644661" />
    <path
       sodipodi:nodetypes="czc"
       inkscape:connector-curvature="0"
       id="path4406"
       d="m 16.2337,652.36022 c 0,0 -35.62993,16.29332 -68.90794,68.72127 -33.278,52.42794 22.8984,129.38786 22.8984,129.38786"
       style="fill:none;fill-rule:evenodd;stroke:#5caf9c;stroke-width:50.00000381;stroke-linecap:round;stroke-linejoin:miter;stroke-miterlimit:4;stroke-dasharray:none;stroke-opacity:1" />
    <path
       style="fill:#60a69a;fill-opacity:1;stroke:none;stroke-width:6;stroke-linecap:round;stroke-linejoin:round;stroke-miterlimit:4;stroke-dasharray:none;stroke-opacity:1"
       d="m 88.879392,-1275.6206 615.215098,0 c 22.16,0 40,17.84 40,40 l 0,818.99997 c 0,11.165 -0.45921,15.9343 -13.70835,27.80907 l -18.61809,16.68679 c -14.79498,13.26025 -37.21161,27.61927 -48.92356,27.00414 l -599.75,-31.5 c -22.129498,-1.16228 -39.671955,-17.84243 -40,-40 l -5.602996,-819.77217 40.299539,-28.5936 c 0,0 13.23171,-10.6342 31.088359,-10.6342 z"
       id="rect4213"
       inkscape:connector-curvature="0"
       sodipodi:nodetypes="sssssssssccs" />
    <g
       id="g4221"
       transform="translate(-928.386,-56.60895)">
      <image
         width="396.07959"
         height="222.79475"
         preserveAspectRatio="none"
         xlink:href="file:///var/www/html/kiwi-simple-flight-search-app/references/Screenshot%20from%202019-04-17%2023-39-52.png"
         id="image4144"
         x="-23.152849"
         y="-290.3978"
         sodipodi:absref="/var/www/html/kiwi-simple-flight-search-app/references/Screenshot from 2019-04-17 23-39-52.png" />
      <image
         width="396.07959"
         height="222.79475"
         preserveAspectRatio="none"
         xlink:href="file:///var/www/html/kiwi-simple-flight-search-app/references/Screenshot%20from%202019-04-17%2023-40-04.png"
         id="image4155"
         x="-23.152849"
         y="-513.19244"
         sodipodi:absref="/var/www/html/kiwi-simple-flight-search-app/references/Screenshot from 2019-04-17 23-40-04.png" />
      <image
         width="396.07959"
         height="222.79475"
         preserveAspectRatio="none"
         xlink:href="file:///var/www/html/kiwi-simple-flight-search-app/references/Screenshot%20from%202019-04-17%2023-40-19.png"
         id="image4166"
         x="372.9267"
         y="-513.19257"
         sodipodi:absref="/var/www/html/kiwi-simple-flight-search-app/references/Screenshot from 2019-04-17 23-40-19.png" />
      <image
         width="396.07959"
         height="222.79475"
         preserveAspectRatio="none"
         xlink:href="file:///var/www/html/kiwi-simple-flight-search-app/references/Screenshot%20from%202019-04-17%2023-41-13.png"
         id="image4177"
         x="-23.152849"
         y="-735.98724"
         sodipodi:absref="/var/www/html/kiwi-simple-flight-search-app/references/Screenshot from 2019-04-17 23-41-13.png" />
      <image
         width="396.07959"
         height="222.79475"
         preserveAspectRatio="none"
         xlink:href="file:///var/www/html/kiwi-simple-flight-search-app/references/Screenshot%20from%202019-04-18%2000-36-06.png"
         id="image4188"
         x="372.9267"
         y="-735.98737"
         sodipodi:absref="/var/www/html/kiwi-simple-flight-search-app/references/Screenshot from 2019-04-18 00-36-06.png" />
      <image
         width="396.07959"
         height="222.79475"
         preserveAspectRatio="none"
         xlink:href="file:///var/www/html/kiwi-simple-flight-search-app/references/Screenshot%20from%202019-04-18%2000-40-14.png"
         id="image4210"
         x="372.9267"
         y="-290.3978"
         sodipodi:absref="/var/www/html/kiwi-simple-flight-search-app/references/Screenshot from 2019-04-18 00-40-14.png" />
    </g>
    <path
       style="fill:none;fill-rule:evenodd;stroke:#5caf9c;stroke-width:50.00000381;stroke-linecap:round;stroke-linejoin:miter;stroke-miterlimit:4;stroke-dasharray:none;stroke-opacity:1"
       d="m 676.99304,652.36022 c 0,0 35.62993,16.29332 68.90794,68.72127 33.278,52.42794 -22.8984,129.38786 -22.8984,129.38786"
       id="path4364"
       inkscape:connector-curvature="0"
       sodipodi:nodetypes="czc" />
    <rect
       ry="40"
       y="32.362206"
       x="0"
       height="899"
       width="697"
       id="rect4215"
       style="fill:#7bcbb9;fill-opacity:1;stroke:none;stroke-width:2;stroke-linecap:round;stroke-linejoin:round;stroke-miterlimit:4;stroke-dasharray:none;stroke-opacity:1"
       rx="40" />
    <rect
       style="fill:#deffe8;fill-opacity:1;stroke:none;stroke-width:2;stroke-linecap:round;stroke-linejoin:round;stroke-miterlimit:4;stroke-dasharray:none;stroke-opacity:1"
       id="rect4217"
       width="564.10425"
       height="430"
       x="66.447868"
       y="100.5"
       ry="19"
       rx="19" />
    <rect
       style="fill:#184f45;fill-opacity:1;stroke:none;stroke-width:0.99999994;stroke-linecap:round;stroke-linejoin:round;stroke-miterlimit:4;stroke-dasharray:none;stroke-opacity:1"
       id="rect4219"
       width="318"
       height="43"
       x="79"
       y="568.48718"
       rx="4"
       ry="4" />
    <g
       id="g4268">
      <g
         transform="translate(-1.8749948,0)"
         id="g4264">
        <circle
           r="26"
           cy="598.78381"
           cx="592"
           id="circle4258"
           style="fill:#4e4ac1;fill-opacity:1;stroke:none;stroke-width:1;stroke-linecap:round;stroke-linejoin:round;stroke-miterlimit:4;stroke-dasharray:none;stroke-opacity:1" />
        <circle
           style="fill:#837ff0;fill-opacity:1;stroke:none;stroke-width:1;stroke-linecap:round;stroke-linejoin:round;stroke-miterlimit:4;stroke-dasharray:none;stroke-opacity:1"
           id="path4229"
           cx="592"
           cy="594.36218"
           r="26" />
      </g>
    </g>
    <g
       id="g4248"
       transform="translate(-13.5,-13)">
      <path
         style="fill:#dab405;fill-opacity:1;stroke:none;stroke-width:2;stroke-linecap:round;stroke-linejoin:round;stroke-miterlimit:4;stroke-dasharray:none;stroke-opacity:1"
         d="m 137,684.36133 c -2.216,0 -4,1.784 -4,4 l 0,33.5 -36.5,0 c -2.216,0 -4,1.784 -4,4 l 0,49 c 0,2.216 1.784,4 4,4 l 36.5,0 0,33.5 c 0,2.216 1.784,4 4,4 l 49,0 c 2.216,0 4,-1.784 4,-4 l 0,-33.5 36.5,0 c 2.216,0 4,-1.784 4,-4 l 0,-49 c 0,-2.216 -1.784,-4 -4,-4 l -36.5,0 0,-33.5 c 0,-2.216 -1.784,-4 -4,-4 l -49,0 z"
         id="path4246"
         inkscape:connector-curvature="0" />
      <path
         inkscape:connector-curvature="0"
         id="rect4231"
         d="m 137,678.36133 c -2.216,0 -4,1.784 -4,4 l 0,33.5 -36.5,0 c -2.216,0 -4,1.784 -4,4 l 0,49 c 0,2.216 1.784,4 4,4 l 36.5,0 0,33.5 c 0,2.216 1.784,4 4,4 l 49,0 c 2.216,0 4,-1.784 4,-4 l 0,-33.5 36.5,0 c 2.216,0 4,-1.784 4,-4 l 0,-49 c 0,-2.216 -1.784,-4 -4,-4 l -36.5,0 0,-33.5 c 0,-2.216 -1.784,-4 -4,-4 l -49,0 z"
         style="fill:#fbd734;fill-opacity:1;stroke:none;stroke-width:2;stroke-linecap:round;stroke-linejoin:round;stroke-miterlimit:4;stroke-dasharray:none;stroke-opacity:1" />
    </g>
    <g
       id="g4254"
       transform="translate(-15.525518,-10)">
      <rect
         ry="7.9961009"
         rx="7.9961009"
         y="843.6955"
         x="97"
         height="15.992202"
         width="54.426037"
         id="rect4236"
         style="fill:#184f45;fill-opacity:1;stroke:none;stroke-width:2;stroke-linecap:round;stroke-linejoin:round;stroke-miterlimit:4;stroke-dasharray:none;stroke-opacity:1" />
      <rect
         style="fill:#184f45;fill-opacity:1;stroke:none;stroke-width:2;stroke-linecap:round;stroke-linejoin:round;stroke-miterlimit:4;stroke-dasharray:none;stroke-opacity:1"
         id="rect4252"
         width="54.426037"
         height="15.992202"
         x="175.625"
         y="843.6955"
         rx="7.9961009"
         ry="7.9961009" />
    </g>
    <g
       id="g4327"
       transform="translate(-4,10)">
      <circle
         r="26"
         cy="734.20099"
         cx="576.69"
         id="circle4277"
         style="fill:#3ebd59;fill-opacity:1;stroke:none;stroke-width:1;stroke-linecap:round;stroke-linejoin:round;stroke-miterlimit:4;stroke-dasharray:none;stroke-opacity:1" />
      <circle
         style="fill:#64f683;fill-opacity:1;stroke:none;stroke-width:1;stroke-linecap:round;stroke-linejoin:round;stroke-miterlimit:4;stroke-dasharray:none;stroke-opacity:1"
         id="circle4279"
         cx="576.69"
         cy="729.77936"
         r="26" />
    </g>
    <circle
       r="41.835464"
       cy="823.65845"
       cx="524.66022"
       id="circle4286"
       style="fill:#c23969;fill-opacity:1;stroke:none;stroke-width:1;stroke-linecap:round;stroke-linejoin:round;stroke-miterlimit:4;stroke-dasharray:none;stroke-opacity:1" />
    <circle
       style="fill:#ff4e8c;fill-opacity:1;stroke:none;stroke-width:1;stroke-linecap:round;stroke-linejoin:round;stroke-miterlimit:4;stroke-dasharray:none;stroke-opacity:1"
       id="circle4288"
       cx="524.66022"
       cy="817.25085"
       r="41.835464" />
    <g
       id="g4331"
       transform="translate(-2.0710678,3.6568543)">
      <path
         transform="matrix(0.62849725,0,0,0.62755751,167.7884,266.31863)"
         inkscape:transform-center-y="-10.89789"
         d="m 545.15605,765.99997 -60.15605,0 -60.15605,0 30.07803,-52.09666 L 485,661.80664 515.07802,713.9033 Z"
         inkscape:randomized="0"
         inkscape:rounded="0"
         inkscape:flatsided="false"
         sodipodi:arg2="1.5707963"
         sodipodi:arg1="0.52359878"
         sodipodi:r2="34.73111"
         sodipodi:r1="69.462219"
         sodipodi:cy="731.26886"
         sodipodi:cx="485"
         sodipodi:sides="3"
         id="path4240"
         style="fill:#3be8f9;fill-opacity:1;stroke:none;stroke-width:3.18457556;stroke-linecap:round;stroke-linejoin:round;stroke-miterlimit:4;stroke-dasharray:none;stroke-opacity:1"
         sodipodi:type="star" />
      <rect
         ry="0"
         rx="0"
         y="747.02765"
         x="434.80167"
         height="6.0000067"
         width="75.615814"
         id="rect4292"
         style="fill:#06bacc;fill-opacity:1;stroke:none;stroke-width:2;stroke-linecap:round;stroke-linejoin:round;stroke-miterlimit:4;stroke-dasharray:none;stroke-opacity:1" />
    </g>
    <g
       id="g4370"
       transform="translate(1.8857574,0)">
      <circle
         r="15"
         cy="313.37439"
         cx="181.74998"
         id="path4336"
         style="fill:#0c2f29;fill-opacity:1;stroke:none;stroke-width:2;stroke-linecap:round;stroke-linejoin:round;stroke-miterlimit:4;stroke-dasharray:none;stroke-opacity:1" />
      <circle
         style="fill:#0c2f29;fill-opacity:1;stroke:none;stroke-width:2;stroke-linecap:round;stroke-linejoin:round;stroke-miterlimit:4;stroke-dasharray:none;stroke-opacity:1"
         id="circle4338"
         cx="511.47849"
         cy="313.37439"
         r="15" />
    </g>
    <path
       style="fill:#66c17b;fill-opacity:1;fill-rule:evenodd;stroke:none;stroke-width:1px;stroke-linecap:butt;stroke-linejoin:miter;stroke-opacity:1"
       d="m 296.64629,371.10888 c -5.11972,6.07965 -3.37222,35.22099 7.11914,48.33519 10.49136,13.1142 24.90541,23.24029 48.3352,22.85618 23.42978,-0.38428 42.85115,-6.05735 50.95803,-22.85618 8.10689,-16.79882 10.14737,-42.68713 5.24569,-48.33519 -4.90169,-5.64807 -21.73211,-7.86852 -53.20619,-8.61791 -31.47408,-0.74938 -55.02647,4.55026 -58.45187,8.61791 z"
       id="path4340"
       inkscape:connector-curvature="0"
       sodipodi:nodetypes="szzzzzs" />
    <path
       style="fill:#a0e1ad;fill-opacity:1;fill-rule:evenodd;stroke:none;stroke-width:1;stroke-linecap:butt;stroke-linejoin:miter;stroke-miterlimit:4;stroke-dasharray:none;stroke-opacity:1"
       d="m 313.67935,429.45721 c 0,0 10.33297,-14.3071 37.88742,-14.3071 27.55445,0 41.81678,15.6821 41.81678,15.6821 -11.1571,7.54275 -21.45197,10.3423 -38.45267,10.96751 -17.0007,0.62521 -27.56135,-2.84633 -41.25153,-12.34251 z"
       id="path4342"
       inkscape:connector-curvature="0"
       sodipodi:nodetypes="csczc" />
    <path
       style="fill:#ffffff;fill-opacity:1;fill-rule:evenodd;stroke:none;stroke-width:1;stroke-linecap:butt;stroke-linejoin:miter;stroke-miterlimit:4;stroke-dasharray:none;stroke-opacity:1"
       d="m 298.29752,369.83877 c 0,0 3.72418,9.29347 9.0231,11.41309 5.29898,2.11955 19.07617,3.44428 42.6565,3.70926 23.58026,0.26499 38.41726,0.52997 45.57081,-2.64951 7.15361,-3.17937 9.79762,-13.75274 9.79762,-13.75274 0,0 -13.2419,-6.77317 -51.65923,-6.50818 -38.41726,0.26498 -55.3888,7.78808 -55.3888,7.78808 z"
       id="path4346"
       inkscape:connector-curvature="0"
       sodipodi:nodetypes="ccsccsc" />
    <path
       sodipodi:nodetypes="szzzzzs"
       inkscape:connector-curvature="0"
       id="path4344"
       d="m 296.64629,370.84389 c -5.11972,6.07966 -3.37222,35.221 7.11914,48.3352 10.49136,13.1142 24.90541,23.24028 48.3352,22.85618 23.42978,-0.38428 42.85115,-6.05735 50.95803,-22.85618 8.10689,-16.79882 10.14737,-42.68713 5.24569,-48.3352 -4.90169,-5.64806 -21.73211,-7.86852 -53.20619,-8.6179 -31.47408,-0.74938 -55.02647,4.55025 -58.45187,8.6179 z"
       style="fill:none;fill-opacity:1;fill-rule:evenodd;stroke:#d2ffe0;stroke-width:5;stroke-linecap:butt;stroke-linejoin:miter;stroke-miterlimit:4;stroke-dasharray:none;stroke-opacity:1" />
    <g
       id="g4399"
       style="stroke:#5caf9c;stroke-opacity:1">
      <g
         id="g4385"
         style="stroke:#5caf9c;stroke-opacity:1">
        <g
           id="g4380"
           transform="matrix(-0.0606314,1.0865156,-1.0814951,-0.06091286,1650.5131,43.195885)"
           style="stroke:#5caf9c;stroke-opacity:1">
          <path
             style="fill:none;fill-rule:evenodd;stroke:#5caf9c;stroke-width:17.5001564;stroke-linecap:round;stroke-linejoin:miter;stroke-miterlimit:4;stroke-dasharray:none;stroke-opacity:1"
             d="m 800.48124,803.97577 c 13.75203,15.62094 23.04031,38.12664 20.97589,51.25423"
             id="path4374"
             inkscape:connector-curvature="0"
             sodipodi:nodetypes="cc" />
          <path
             sodipodi:nodetypes="cc"
             inkscape:connector-curvature="0"
             id="path4376"
             d="m 801.63407,826.81586 c 1.91199,11.83474 2.91008,17.60403 3.87709,34.67659"
             style="fill:none;fill-rule:evenodd;stroke:#5caf9c;stroke-width:17.5001564;stroke-linecap:round;stroke-linejoin:miter;stroke-miterlimit:4;stroke-dasharray:none;stroke-opacity:1" />
          <path
             style="fill:none;fill-rule:evenodd;stroke:#5caf9c;stroke-width:17.5001564;stroke-linecap:round;stroke-linejoin:miter;stroke-miterlimit:4;stroke-dasharray:none;stroke-opacity:1"
             d="m 786.42696,832.24264 c 1.25164,8.9368 2.05999,14.26788 1.60196,30.18179"
             id="path4378"
             inkscape:connector-curvature="0"
             sodipodi:nodetypes="cc" />
        </g>
      </g>
    </g>
    <g
       style="stroke:#5caf9c;stroke-opacity:1"
       id="g4408"
       transform="matrix(-1,0,0,1,693.22674,0)">
      <g
         style="stroke:#5caf9c;stroke-opacity:1"
         id="g4410">
        <g
           style="stroke:#5caf9c;stroke-opacity:1"
           transform="matrix(-0.0606314,1.0865156,-1.0814951,-0.06091286,1650.5131,43.195885)"
           id="g4412">
          <path
             sodipodi:nodetypes="cc"
             inkscape:connector-curvature="0"
             id="path4414"
             d="m 801.06917,806.25442 c 13.75203,15.62094 22.45238,35.84799 20.38796,48.97558"
             style="fill:none;fill-rule:evenodd;stroke:#5caf9c;stroke-width:17.5001564;stroke-linecap:round;stroke-linejoin:miter;stroke-miterlimit:4;stroke-dasharray:none;stroke-opacity:1" />
          <path
             style="fill:none;fill-rule:evenodd;stroke:#5caf9c;stroke-width:17.5001564;stroke-linecap:round;stroke-linejoin:miter;stroke-miterlimit:4;stroke-dasharray:none;stroke-opacity:1"
             d="m 801.63407,826.81586 c 1.91199,11.83474 2.91008,17.60403 3.87709,34.67659"
             id="path4416"
             inkscape:connector-curvature="0"
             sodipodi:nodetypes="cc" />
          <path
             sodipodi:nodetypes="cc"
             inkscape:connector-curvature="0"
             id="path4418"
             d="m 786.42696,832.24264 c 1.25164,8.9368 2.05999,14.26788 1.60196,30.18179"
             style="fill:none;fill-rule:evenodd;stroke:#5caf9c;stroke-width:17.5001564;stroke-linecap:round;stroke-linejoin:miter;stroke-miterlimit:4;stroke-dasharray:none;stroke-opacity:1" />
        </g>
      </g>
    </g>
    <g
       id="g4426">
      <path
         sodipodi:nodetypes="czcscc"
         inkscape:connector-curvature="0"
         id="path4422"
         d="m 566.54594,980.3561 c 0,0 -32.60051,-8.6967 -55.35355,-21.73223 -22.75305,-13.03554 -31.14645,-27.26777 -31.14645,-27.26777 0,0 -1,-29.5 21,-37 22,-7.5 51,7.5 51,7.5 z"
         style="fill:#5caf9c;fill-opacity:1;fill-rule:evenodd;stroke:none;stroke-width:1px;stroke-linecap:butt;stroke-linejoin:miter;stroke-opacity:1" />
      <path
         sodipodi:nodetypes="zzzzz"
         inkscape:connector-curvature="0"
         id="path4420"
         d="m 565.18956,980.3089 c 24.91114,3.7751 33.9071,-17.63099 42.14588,-42.66701 8.23877,-25.03602 16.38235,-67.27283 -12.48285,-72.30414 -28.8652,-5.03132 -41.16811,9.81333 -47.57975,44.95586 -6.41163,35.14253 -6.99442,66.2402 17.91672,70.01529 z"
         style="fill:#5caf9c;fill-opacity:1;fill-rule:evenodd;stroke:none;stroke-width:1px;stroke-linecap:butt;stroke-linejoin:miter;stroke-opacity:1" />
      <path
         style="fill:#82c1b2;fill-opacity:1;fill-rule:evenodd;stroke:none;stroke-width:1px;stroke-linecap:butt;stroke-linejoin:miter;stroke-opacity:1"
         d="m 568.67525,980.33924 c 23.16986,3.51122 31.537,-16.39859 39.19989,-39.6846 7.66289,-23.28601 15.23723,-62.57048 -11.6103,-67.2501 -26.84753,-4.67963 -38.29047,9.12738 -44.25394,41.81346 -5.96346,32.68607 -6.50551,61.61002 16.66435,65.12124 z"
         id="path4424"
         inkscape:connector-curvature="0"
         sodipodi:nodetypes="zzzzz" />
    </g>
    <g
       id="g4431"
       transform="matrix(-1,0,0,1,686.0955,0)">
      <path
         style="fill:#5caf9c;fill-opacity:1;fill-rule:evenodd;stroke:none;stroke-width:1px;stroke-linecap:butt;stroke-linejoin:miter;stroke-opacity:1"
         d="m 566.54594,980.3561 c 0,0 -32.60051,-8.6967 -55.35355,-21.73223 -22.75305,-13.03554 -31.14645,-27.26777 -31.14645,-27.26777 0,0 -1,-29.5 21,-37 22,-7.5 51,7.5 51,7.5 z"
         id="path4433"
         inkscape:connector-curvature="0"
         sodipodi:nodetypes="czcscc" />
      <path
         style="fill:#5caf9c;fill-opacity:1;fill-rule:evenodd;stroke:none;stroke-width:1px;stroke-linecap:butt;stroke-linejoin:miter;stroke-opacity:1"
         d="m 565.18956,980.3089 c 24.91114,3.7751 33.9071,-17.63099 42.14588,-42.66701 8.23877,-25.03602 16.38235,-67.27283 -12.48285,-72.30414 -28.8652,-5.03132 -41.16811,9.81333 -47.57975,44.95586 -6.41163,35.14253 -6.99442,66.2402 17.91672,70.01529 z"
         id="path4435"
         inkscape:connector-curvature="0"
         sodipodi:nodetypes="zzzzz" />
      <path
         sodipodi:nodetypes="zzzzz"
         inkscape:connector-curvature="0"
         id="path4437"
         d="m 568.67525,980.33924 c 23.16986,3.51122 31.537,-16.39859 39.19989,-39.6846 7.66289,-23.28601 15.23723,-62.57048 -11.6103,-67.2501 -26.84753,-4.67963 -38.29047,9.12738 -44.25394,41.81346 -5.96346,32.68607 -6.50551,61.61002 16.66435,65.12124 z"
         style="fill:#82c1b2;fill-opacity:1;fill-rule:evenodd;stroke:none;stroke-width:1px;stroke-linecap:butt;stroke-linejoin:miter;stroke-opacity:1" />
    </g>
  </g>
</svg>
